<?xml version="1.0" encoding="utf-8"?>
<!-- Generator: Adobe Illustrator 25.0.0, SVG Export Plug-In . SVG Version: 6.00 Build 0)  -->
<svg version="1.1" id="e964fae6-99d5-4ba3-9654-9b5776c78265"
	 xmlns="http://www.w3.org/2000/svg" xmlns:xlink="http://www.w3.org/1999/xlink" x="0px" y="0px" viewBox="0 0 1002.7 700.08"
	 style="enable-background:new 0 0 1002.7 700.08;" xml:space="preserve">
<style type="text/css">
	.st0{fill:#F2F2F2;}
	.st1{fill:#3F3D56;}
	.st2{fill:#6C63FF;}
	.st3{fill:#A0616A;}
	.st4{fill:#2F2E41;}
	.st5{fill:#D0CDE1;}
	.st6{opacity:0.15;enable-background:new    ;}
	.st7{opacity:0.3;fill:#FFFFFF;enable-background:new    ;}
	.st8{opacity:0.3;enable-background:new    ;}
</style>
<polyline class="st0" points="482.7,151.17 482.7,280.17 728.7,280.17 "/>
<polygon class="st1" points="764.7,281.17 481.7,281.17 481.7,26.17 483.7,26.17 483.7,279.17 764.7,279.17 "/>
<path class="st1" d="M485.78,281.46l-1.79-0.89c12.3-24.61,37.96-42.07,65.37-44.48c4.73-0.42,9.68-0.46,14.47-0.5
	c13.24-0.11,26.93-0.22,36.91-8.32c7.39-5.99,10.96-14.81,14.74-24.14c1.85-4.87,4.02-9.61,6.48-14.19
	c9.7-16.58,26.96-27.31,46.12-28.66c0.73-0.04,1.48-0.07,2.23-0.08c1.61-2.16,3.38-4.19,5.3-6.09c9.69-9.58,22.1-15.87,34.1-21.94
	l2.84-1.44c12.7-6.46,25.85-13.71,34.83-24.94c11.4-14.6,14.72-33.95,8.82-51.51l1.89-0.66c6.12,18.21,2.68,38.28-9.15,53.42
	c-9.23,11.54-22.59,18.91-35.49,25.47l-2.84,1.44c-11.86,6.01-24.13,12.22-33.6,21.58c-1.5,1.48-2.9,3.05-4.21,4.7
	c11.3,0.44,24.45,4.81,31.84,16.11c4.2,6.68,5.39,14.81,3.28,22.41c-1.78,6.56-5.75,11.66-11.18,14.35
	c-5.73,2.85-12.5,2.76-19.07-0.23c-7.74-3.51-13.55-10.25-15.88-18.43c-3.02-11.69,0.96-23.25,7.05-32.21
	c-0.22,0.01-0.44,0.02-0.66,0.03c-18.49,1.3-35.14,11.65-44.5,27.65c-2.42,4.51-4.55,9.17-6.37,13.95
	c-3.71,9.16-7.55,18.62-15.34,24.94c-10.53,8.54-24.57,8.65-38.16,8.77c-4.75,0.04-9.67,0.08-14.31,0.49
	C522.81,240.43,497.78,257.45,485.78,281.46z M671.34,162.2c-6.27,8.69-10.58,20.19-7.59,31.75c2.17,7.59,7.58,13.85,14.77,17.11
	c6.01,2.74,12.17,2.83,17.35,0.26c4.91-2.44,8.51-7.09,10.14-13.09c1.91-7.05,0.82-14.58-3.03-20.79
	C696.89,168.11,684.69,162.31,671.34,162.2z"/>
<circle class="st2" cx="620.7" cy="193.17" r="18"/>
<path class="st1" d="M432.97,520.12H0V314.17h432.97V520.12z M2,518.12h428.97V316.17H2V518.12z"/>
<path class="st3" d="M832.35,232.5l-8.22,41.12c0,0-10.57,23.5-5.87,39.94l3.52,7.05l22.32-19.97l8.22-55.22L832.35,232.5z"/>
<polygon class="st3" points="786.53,613.14 773.61,662.48 788.88,669.53 802.98,657.78 811.2,620.19 "/>
<polygon class="st3" points="959.82,593.76 966.28,664.83 999.17,664.83 983.31,586.71 "/>
<path class="st4" d="M908.71,332.36l6.66-32.54l-77.15-17.98l-16.45,25.85c0,0-28.2,44.64-35.24,180.92s-9.4,135.1-9.4,135.1
	l57.57,5.87l29.37-190.32l72.84,173.87l55.22-15.27l-69.31-209.12C922.81,388.75,927.51,358.2,908.71,332.36z"/>
<path class="st4" d="M790.06,651.91l-8.22,8.22l-4.7-4.7l2.57-17.26l-13.14,7.86c0,0-23.5-3.52-21.15,21.15
	c0,0-3.52,8.22,16.45,17.62s30.55,15.27,30.55,15.27s18.8-1.17,18.8-7.05s-5.92-45.76-5.92-45.76L790.06,651.91z"/>
<path class="st4" d="M981.55,651.91l-8.22,8.22l-4.7-4.7l-4.93-17.26l-5.64,7.86c0,0-23.5-3.52-21.15,21.15
	c0,0-3.52,8.22,16.45,17.62s30.55,15.27,30.55,15.27s18.8-1.17,18.8-7.05s-5.92-45.76-5.92-45.76L981.55,651.91z"/>
<circle class="st3" cx="888.74" cy="130.29" r="34.07"/>
<polygon class="st3" points="878.17,156.13 880.52,196.08 925.16,196.08 912.24,142.04 "/>
<path class="st5" d="M852.32,179.63l36.42-2.35l38.77,2.35c0,0,32.9,17.62,15.27,65.79s-30.55,63.44-30.55,63.44l-37.59-16.45
	h-11.75c0,0-3.52-3.52-4.7-3.52s-23.5,3.52-23.5,3.52s-5.87-24.67,2.35-27.02s12.92-15.27,12.92-15.27L852.32,179.63z"/>
<polygon class="st5" points="859.37,183.16 852.32,179.63 827.65,237.2 854.67,254.82 "/>
<path class="st4" d="M839.99,127.35c0,0-16.45-42.29,16.07-46.34c0,0,41-25.18,67.34,16.97l20.79,51.33l-6.95-1.38l-0.88,6.92
	l-8.86,5.44l-6.67-6.89l1.1,10.55l-76.38,32.44c0,0,28.79-31.89,17.69-69.48l-4.51,9.2L839.99,127.35z"/>
<path class="st2" d="M186.83,84.85c8.85-28.98,32.5-51.04,62.02-57.85C216.9-7.27,163.23-9.15,128.96,22.8s-36.15,85.62-4.2,119.89
	c20.68,22.18,51.62,31.63,81.16,24.8C185.25,145.34,177.96,113.83,186.83,84.85z"/>
<path class="st1" d="M305.36,32.37c-14.24-4.37-29.38-4.89-43.89-1.51c31.95,34.24,30.1,87.91-4.15,119.86
	c-10.89,10.16-24.26,17.28-38.78,20.63c31.95,34.26,85.63,36.13,119.88,4.18s36.13-85.63,4.18-119.88
	C332.45,44.74,319.6,36.72,305.36,32.37L305.36,32.37z"/>
<ellipse transform="matrix(0.2922 -0.9564 0.9564 0.2922 70.1948 292.6346)" class="st5" cx="232.8" cy="98.89" rx="73.45" ry="42.41"/>
<circle class="st2" cx="759.7" cy="59.17" r="18"/>
<circle class="st2" cx="710.7" cy="133.17" r="18"/>
<rect x="8.7" y="360.81" class="st0" width="329.07" height="145.36"/>
<rect x="25.04" y="351.05" class="st2" width="313.32" height="27.8"/>
<rect x="44.96" y="361.19" class="st1" width="273.5" height="7.51"/>
<circle class="st1" cx="181.33" cy="364.57" r="10.52"/>
<rect x="99.43" y="400.64" class="st2" width="163.8" height="78.14"/>
<circle class="st6" cx="181.33" cy="439.71" r="15.03"/>
<circle class="st7" cx="233.93" cy="439.71" r="15.03"/>
<circle class="st8" cx="128.73" cy="439.71" r="15.03"/>
</svg>
