<?xml version="1.0" encoding="utf-8"?>
<!-- Generator: Adobe Illustrator 25.0.0, SVG Export Plug-In . SVG Version: 6.00 Build 0)  -->
<svg version="1.1" id="e964fae6-99d5-4ba3-9654-9b5776c78265"
	 xmlns="http://www.w3.org/2000/svg" xmlns:xlink="http://www.w3.org/1999/xlink" x="0px" y="0px" viewBox="0 0 955.49 754.95"
	 style="enable-background:new 0 0 955.49 754.95;" xml:space="preserve">
<style type="text/css">
	.st0{opacity:0.18;fill:#E3E7E8;}
	.st1{fill:#E3E7E8;}
	.st2{fill:#6C63FF;}
	.st3{fill:#00C9A2;}
	.st4{fill:#A0616A;}
	.st5{fill:#5E65EA;}
	.st6{fill:#2F2E41;}
	.st7{fill:#D0CDE1;}
	.st8{fill:#5E65EA;stroke:#5E65EA;stroke-miterlimit:10;}
	.st9{opacity:0.3;fill:#00C9A2;enable-background:new    ;}
</style>
<path class="st0" d="M812.15,624.95c0,5.15-3.66,9.33-8.17,9.33H8.17c-4.51,0-8.17-4.18-8.17-9.33V9.33C0,4.18,3.66,0,8.17,0h795.8
	c4.51,0,8.17,4.18,8.17,9.33V624.95z"/>
<g>
	<circle class="st1" cx="17.77" cy="13.05" r="4.35"/>
	<circle class="st1" cx="30.27" cy="13.05" r="4.35"/>
	<circle class="st1" cx="42.77" cy="13.5" r="4.35"/>
</g>
<g>
	<path class="st1" d="M500.15,71.81h-60.86c-2.8,0-5.07-2.27-5.07-5.07c0-2.8,2.27-5.07,5.07-5.07h60.86c2.8,0,5.07,2.27,5.07,5.07
		C505.22,69.54,502.95,71.81,500.15,71.81z"/>
	<path class="st1" d="M583.47,96.44H439.29c-2.8,0-5.07-2.27-5.07-5.07s2.27-5.07,5.07-5.07h144.17c2.8,0,5.07,2.27,5.07,5.07
		S586.27,96.44,583.47,96.44L583.47,96.44z"/>
	<path class="st2" d="M629.99,106.24c-20.6,30.03-12.95,71.07,17.08,91.66c10.98,7.53,23.98,11.56,37.29,11.56v-57.55L629.99,106.24
		z"/>
	<path class="st1" d="M684.36,77.6c-21.74-0.01-42.08,10.7-54.37,28.63l54.37,45.67V77.6z"/>
	<path class="st1" d="M684.36,210.18h-0.72V76.88h0.72c36.81,0,66.65,29.84,66.65,66.65S721.17,210.18,684.36,210.18z M685.09,78.33
		v130.4c36.01-0.4,64.88-29.92,64.48-65.93C749.17,107.36,720.53,78.73,685.09,78.33z"/>
	<path class="st1" d="M481.31,237.35H469c-1.8,0-3.26-1.46-3.26-3.26v-35.5c0-1.8,1.46-3.26,3.26-3.26h12.32
		c1.8,0,3.26,1.46,3.26,3.26v35.5C484.57,235.89,483.11,237.35,481.31,237.35z"/>
	<path class="st3" d="M517.54,237.35h-12.32c-1.8,0-3.26-1.46-3.26-3.26v-52.16c0-1.8,1.46-3.26,3.26-3.26h12.32
		c1.8,0,3.26,1.46,3.26,3.26v52.16C520.8,235.89,519.34,237.35,517.54,237.35z"/>
	<path class="st2" d="M553.76,237.35h-12.32c-1.8,0-3.26-1.46-3.26-3.26v-66.65c0-1.8,1.46-3.26,3.26-3.26h12.32
		c1.8,0,3.26,1.46,3.26,3.26v66.65C557.02,235.89,555.56,237.35,553.76,237.35z"/>
	<path class="st1" d="M481.31,237.72H469c-2,0-3.62-1.62-3.62-3.62V154.4c0-2,1.62-3.62,3.62-3.62h12.32c2,0,3.62,1.62,3.62,3.62
		v79.69C484.93,236.09,483.31,237.71,481.31,237.72z M469,152.23c-1.2,0-2.17,0.97-2.17,2.17v79.69c0,1.2,0.97,2.17,2.17,2.17h12.32
		c1.2,0,2.17-0.97,2.17-2.17V154.4c0-1.2-0.97-2.17-2.17-2.17H469z"/>
	<path class="st1" d="M517.54,237.72h-12.32c-2,0-3.62-1.62-3.62-3.62V154.4c0-2,1.62-3.62,3.62-3.62h12.32c2,0,3.62,1.62,3.62,3.62
		v79.69C521.16,236.09,519.54,237.71,517.54,237.72z M505.22,152.23c-1.2,0-2.17,0.97-2.17,2.17v79.69c0,1.2,0.97,2.17,2.17,2.17
		h12.32c1.2,0,2.17-0.97,2.17-2.17V154.4c0-1.2-0.97-2.17-2.17-2.17H505.22z"/>
	<path class="st1" d="M553.76,237.72h-12.32c-2,0-3.62-1.62-3.62-3.62V154.4c0-2,1.62-3.62,3.62-3.62h12.32c2,0,3.62,1.62,3.62,3.62
		v79.69C557.38,236.09,555.76,237.71,553.76,237.72z M541.45,152.23c-1.2,0-2.17,0.97-2.17,2.17v79.69c0,1.2,0.97,2.17,2.17,2.17
		h12.32c1.2,0,2.17-0.97,2.17-2.17V154.4c0-1.2-0.97-2.17-2.17-2.17H541.45z"/>
</g>
<path class="st4" d="M785.13,287.38l-8.22,41.12c0,0-10.57,23.5-5.87,39.94l3.52,7.05l22.32-19.97l8.22-55.22L785.13,287.38z"/>
<g>
	<circle class="st1" cx="81.1" cy="52.38" r="4.69"/>
	<circle class="st1" cx="104.86" cy="52.38" r="4.69"/>
	<circle class="st1" cx="128.61" cy="52.38" r="4.69"/>
	<circle class="st1" cx="152.37" cy="52.38" r="4.69"/>
	<circle class="st1" cx="176.13" cy="52.38" r="4.69"/>
	<circle class="st1" cx="199.88" cy="52.38" r="4.69"/>
	<circle class="st1" cx="223.64" cy="52.38" r="4.69"/>
	<circle class="st1" cx="247.4" cy="52.38" r="4.69"/>
	<circle class="st1" cx="271.15" cy="52.38" r="4.69"/>
	<circle class="st1" cx="294.91" cy="52.38" r="4.69"/>
	<circle class="st1" cx="81.1" cy="76.44" r="4.69"/>
	<circle class="st1" cx="104.86" cy="76.44" r="4.69"/>
	<circle class="st1" cx="128.61" cy="76.44" r="4.69"/>
	<circle class="st5" cx="152.37" cy="76.44" r="4.69"/>
	<circle class="st1" cx="176.13" cy="76.44" r="4.69"/>
	<circle class="st1" cx="199.88" cy="76.44" r="4.69"/>
	<circle class="st1" cx="223.64" cy="76.44" r="4.69"/>
	<circle class="st1" cx="247.4" cy="76.44" r="4.69"/>
	<circle class="st1" cx="271.15" cy="76.44" r="4.69"/>
	<circle class="st1" cx="294.91" cy="76.44" r="4.69"/>
	<circle class="st1" cx="81.1" cy="100.49" r="4.69"/>
	<circle class="st1" cx="104.86" cy="100.49" r="4.69"/>
	<circle class="st1" cx="128.61" cy="100.49" r="4.69"/>
	<circle class="st1" cx="152.37" cy="100.49" r="4.69"/>
	<circle class="st1" cx="176.13" cy="100.49" r="4.69"/>
	<circle class="st1" cx="199.88" cy="100.49" r="4.69"/>
	<circle class="st1" cx="223.64" cy="100.49" r="4.69"/>
	<circle class="st1" cx="247.4" cy="100.49" r="4.69"/>
	<circle class="st1" cx="271.15" cy="100.49" r="4.69"/>
	<circle class="st1" cx="294.91" cy="100.49" r="4.69"/>
	<circle class="st1" cx="81.1" cy="124.55" r="4.69"/>
	<circle class="st1" cx="104.86" cy="124.55" r="4.69"/>
	<circle class="st1" cx="128.61" cy="124.55" r="4.69"/>
	<circle class="st1" cx="152.37" cy="124.55" r="4.69"/>
	<circle class="st1" cx="176.13" cy="124.55" r="4.69"/>
	<circle class="st1" cx="199.88" cy="124.55" r="4.69"/>
	<circle class="st1" cx="223.64" cy="124.55" r="4.69"/>
	<circle class="st1" cx="247.4" cy="124.55" r="4.69"/>
	<circle class="st1" cx="271.15" cy="124.55" r="4.69"/>
	<circle class="st1" cx="294.91" cy="124.55" r="4.69"/>
	<circle class="st1" cx="81.1" cy="148.6" r="4.69"/>
	<circle class="st5" cx="104.86" cy="148.6" r="4.69"/>
	<circle class="st1" cx="128.61" cy="148.6" r="4.69"/>
	<circle class="st1" cx="152.37" cy="148.6" r="4.69"/>
	<circle class="st1" cx="176.13" cy="148.6" r="4.69"/>
	<circle class="st1" cx="199.88" cy="148.6" r="4.69"/>
	<circle class="st1" cx="223.64" cy="148.6" r="4.69"/>
	<circle class="st1" cx="247.4" cy="148.6" r="4.69"/>
	<circle class="st1" cx="271.15" cy="148.6" r="4.69"/>
	<circle class="st1" cx="294.91" cy="148.6" r="4.69"/>
	<circle class="st1" cx="81.1" cy="172.66" r="4.69"/>
	<circle class="st1" cx="104.86" cy="172.66" r="4.69"/>
	<circle class="st5" cx="128.61" cy="172.66" r="4.69"/>
	<circle class="st1" cx="152.37" cy="172.66" r="4.69"/>
	<circle class="st1" cx="176.13" cy="172.66" r="4.69"/>
	<circle class="st1" cx="199.88" cy="172.66" r="4.69"/>
	<circle class="st1" cx="223.64" cy="172.66" r="4.69"/>
	<circle class="st1" cx="247.4" cy="172.66" r="4.69"/>
	<circle class="st1" cx="271.15" cy="172.66" r="4.69"/>
	<circle class="st1" cx="294.91" cy="172.66" r="4.69"/>
	<circle class="st1" cx="81.1" cy="196.71" r="4.69"/>
	<circle class="st1" cx="104.86" cy="196.71" r="4.69"/>
	<circle class="st1" cx="128.61" cy="196.71" r="4.69"/>
	<circle class="st1" cx="152.37" cy="196.71" r="4.69"/>
	<circle class="st1" cx="176.13" cy="196.71" r="4.69"/>
	<circle class="st1" cx="199.88" cy="196.71" r="4.69"/>
	<circle class="st1" cx="223.64" cy="196.71" r="4.69"/>
	<circle class="st1" cx="247.4" cy="196.71" r="4.69"/>
	<circle class="st1" cx="271.15" cy="196.71" r="4.69"/>
	<circle class="st1" cx="294.91" cy="196.71" r="4.69"/>
	<circle class="st1" cx="81.1" cy="220.77" r="4.69"/>
	<circle class="st1" cx="104.86" cy="220.77" r="4.69"/>
	<circle class="st1" cx="128.61" cy="220.77" r="4.69"/>
	<circle class="st1" cx="152.37" cy="220.77" r="4.69"/>
	<circle class="st1" cx="176.13" cy="220.77" r="4.69"/>
	<circle class="st1" cx="199.88" cy="220.77" r="4.69"/>
	<circle class="st1" cx="223.64" cy="220.77" r="4.69"/>
	<circle class="st1" cx="247.4" cy="220.77" r="4.69"/>
	<circle class="st1" cx="271.15" cy="220.77" r="4.69"/>
	<circle class="st1" cx="294.91" cy="220.77" r="4.69"/>
	<circle class="st1" cx="81.1" cy="244.82" r="4.69"/>
	<circle class="st1" cx="104.86" cy="244.82" r="4.69"/>
	<circle class="st1" cx="128.61" cy="244.82" r="4.69"/>
	<circle class="st1" cx="152.37" cy="244.82" r="4.69"/>
	<circle class="st1" cx="176.13" cy="244.82" r="4.69"/>
	<circle class="st1" cx="199.88" cy="244.82" r="4.69"/>
	<circle class="st1" cx="223.64" cy="244.82" r="4.69"/>
	<circle class="st1" cx="247.4" cy="244.82" r="4.69"/>
	<circle class="st1" cx="271.15" cy="244.82" r="4.69"/>
	<circle class="st1" cx="294.91" cy="244.82" r="4.69"/>
	<circle class="st1" cx="81.1" cy="268.88" r="4.69"/>
	<circle class="st1" cx="104.86" cy="268.88" r="4.69"/>
	<circle class="st1" cx="128.61" cy="268.88" r="4.69"/>
	<circle class="st1" cx="152.37" cy="268.88" r="4.69"/>
	<circle class="st1" cx="176.13" cy="268.88" r="4.69"/>
	<circle class="st1" cx="199.88" cy="268.88" r="4.69"/>
	<circle class="st1" cx="223.64" cy="268.88" r="4.69"/>
	<circle class="st1" cx="247.4" cy="268.88" r="4.69"/>
	<circle class="st1" cx="271.15" cy="268.88" r="4.69"/>
	<circle class="st1" cx="294.91" cy="268.88" r="4.69"/>
	<g>
		<g>
			<path class="st3" d="M611.45,457.59c-8.25,0.06-11.65-5.75-7.56-12.91l40.83-71.55c4.09-7.17,0.68-13.03-7.57-13.03h-81.46
				c-8.25,0-18.38,5.85-22.5,12.99l-40.76,70.6c-4.12,7.14-4.12,18.84,0,25.98l40.76,70.6c4.12,7.14,14.25,12.99,22.5,12.99h81.52
				c8.25,0,18.38-5.85,22.5-12.99l40.66-70.42c4.12-7.14,0.75-12.94-7.5-12.88L611.45,457.59z"/>
		</g>
		<g>
			<path class="st5" d="M706.7,448.78c8.25-0.06,15.02-0.15,15.05-0.2c0.03-0.05-3.32-5.94-7.45-13.08l-40.76-70.6
				c-4.12-7.14-7.51-12.99-7.53-12.99c-0.02,0-3.38,5.86-7.46,13.03l-40.83,71.55c-4.09,7.17-0.68,12.98,7.56,12.91L706.7,448.78z"
				/>
		</g>
	</g>
</g>
<polygon class="st4" points="739.31,668.02 726.39,717.36 741.66,724.41 755.76,712.66 763.98,675.07 "/>
<polygon class="st4" points="912.6,648.64 919.06,719.71 951.95,719.71 936.09,641.59 "/>
<path class="st6" d="M861.49,387.24l6.66-32.54L791,336.72l-16.45,25.85c0,0-28.2,44.64-35.24,180.92s-9.4,135.1-9.4,135.1
	l57.57,5.87l29.37-190.32l72.84,173.87l55.22-15.27L875.6,443.62C875.59,443.63,880.29,413.08,861.49,387.24z"/>
<path class="st6" d="M742.84,706.79l-8.22,8.22l-4.7-4.7l2.57-17.26l-13.14,7.86c0,0-23.5-3.52-21.15,21.15
	c0,0-3.52,8.22,16.45,17.62s30.55,15.27,30.55,15.27s18.8-1.17,18.8-7.05s-5.92-45.76-5.92-45.76L742.84,706.79z"/>
<path class="st6" d="M934.33,706.79l-8.22,8.22l-4.7-4.7l-4.93-17.26l-5.64,7.86c0,0-23.5-3.52-21.15,21.15
	c0,0-3.52,8.22,16.45,17.62s30.55,15.27,30.55,15.27s18.8-1.17,18.8-7.05s-5.92-45.76-5.92-45.76L934.33,706.79z"/>
<circle class="st4" cx="841.52" cy="185.17" r="34.07"/>
<polygon class="st4" points="830.95,211.01 833.3,250.96 877.94,250.96 865.02,196.92 "/>
<path class="st7" d="M805.1,234.51l36.42-2.35l38.77,2.35c0,0,32.9,17.62,15.27,65.79s-30.55,63.44-30.55,63.44l-37.59-16.45h-11.75
	c0,0-3.52-3.52-4.7-3.52s-23.5,3.52-23.5,3.52s-5.87-24.67,2.35-27.02S802.74,305,802.74,305L805.1,234.51z"/>
<polygon class="st7" points="812.15,238.04 805.1,234.51 780.43,292.08 807.45,309.7 "/>
<path class="st6" d="M792.77,182.23c0,0-16.45-42.29,16.07-46.34c0,0,41-25.18,67.34,16.97l20.79,51.33l-6.95-1.38l-0.88,6.92
	l-8.86,5.44l-6.67-6.89l1.1,10.55l-76.38,32.44c0,0,28.79-31.89,17.69-69.48l-4.51,9.2L792.77,182.23z"/>
<path class="st5" d="M213.45,205.97c6.41-21,23.55-36.98,44.94-41.92c-23.15-24.83-62.04-26.19-86.87-3.04s-26.19,62.04-3.04,86.87
	c14.98,16.07,37.4,22.92,58.81,17.97C212.3,249.8,207.02,226.97,213.45,205.97z"/>
<path class="st1" d="M299.33,167.94c-10.32-3.17-21.29-3.54-31.8-1.09c23.15,24.81,21.81,63.7-3.01,86.85
	c-7.89,7.36-17.58,12.52-28.1,14.95c23.15,24.82,62.05,26.18,86.86,3.03s26.18-62.05,3.03-86.86
	C318.96,176.91,309.65,171.09,299.33,167.94L299.33,167.94z"/>
<ellipse transform="matrix(0.2922 -0.9564 0.9564 0.2922 -32.0463 388.9695)" class="st7" cx="246.76" cy="216.13" rx="53.22" ry="30.73"/>
<g>
	<g>
		<polygon class="st1" points="315.85,589.92 66.11,589.92 66.11,364.89 67.87,364.89 67.87,588.16 315.85,588.16 		"/>
		<path class="st8" d="M69.71,590.18l-1.58-0.79c10.85-21.72,33.5-37.13,57.69-39.25c4.17-0.37,8.54-0.41,12.77-0.44
			c11.68-0.1,23.77-0.19,32.57-7.34c6.52-5.29,9.67-13.07,13.01-21.3c1.63-4.3,3.55-8.48,5.72-12.52
			c8.56-14.63,23.79-24.1,40.7-25.29c0.64-0.04,1.31-0.06,1.97-0.07c1.42-1.91,2.98-3.7,4.68-5.37c8.55-8.45,19.5-14.01,30.09-19.36
			l2.51-1.27c11.21-5.7,22.81-12.1,30.74-22.01c10.06-12.88,12.99-29.96,7.78-45.46l1.67-0.58c5.4,16.07,2.37,33.78-8.07,47.14
			c-8.15,10.18-19.94,16.69-31.32,22.48l-2.51,1.27c-10.47,5.3-21.29,10.78-29.65,19.04c-1.32,1.31-2.56,2.69-3.72,4.15
			c9.97,0.39,21.58,4.24,28.1,14.22c3.71,5.89,4.76,13.07,2.89,19.78c-1.57,5.79-5.07,10.29-9.87,12.66
			c-5.06,2.52-11.03,2.44-16.83-0.2c-6.83-3.1-11.96-9.05-14.01-16.26c-2.67-10.32,0.85-20.52,6.22-28.42
			c-0.19,0.01-0.39,0.02-0.58,0.03c-16.32,1.15-31.01,10.28-39.27,24.4c-2.14,3.98-4.02,8.09-5.62,12.31
			c-3.27,8.08-6.66,16.43-13.54,22.01c-9.29,7.54-21.68,7.63-33.68,7.74c-4.19,0.04-8.53,0.07-12.63,0.43
			C102.38,553.97,80.3,568.99,69.71,590.18z M233.46,484.93c-5.53,7.67-9.34,17.82-6.7,28.02c1.91,6.7,6.69,12.22,13.03,15.1
			c5.3,2.42,10.74,2.5,15.31,0.23c4.33-2.15,7.51-6.26,8.95-11.55c1.69-6.22,0.72-12.87-2.67-18.35
			C256.01,490.15,245.24,485.03,233.46,484.93z"/>
		<circle class="st3" cx="188.77" cy="512.26" r="15.88"/>
		<circle class="st3" cx="311.44" cy="394.01" r="15.88"/>
		<circle class="st3" cx="268.19" cy="459.31" r="15.88"/>
	</g>
	<circle class="st9" cx="207.37" cy="483.92" r="13.26"/>
</g>
</svg>
