<?xml version="1.0" encoding="utf-8"?>
<!-- Generator: Adobe Illustrator 25.0.0, SVG Export Plug-In . SVG Version: 6.00 Build 0)  -->
<svg version="1.1" id="Layer_1" xmlns="http://www.w3.org/2000/svg" xmlns:xlink="http://www.w3.org/1999/xlink" x="0px" y="0px"
	 viewBox="0 0 376.93 344.43" style="enable-background:new 0 0 376.93 344.43;" xml:space="preserve">
<style type="text/css">
	.st0{display:none;opacity:0.37;fill:#312952;stroke:#312952;stroke-width:9;stroke-miterlimit:10;}
	.st1{fill-rule:evenodd;clip-rule:evenodd;fill:#312952;stroke:#312952;stroke-width:3;stroke-miterlimit:10;}
	.st2{fill:#312952;stroke:#312952;stroke-width:3;stroke-miterlimit:10;}
</style>
<rect x="-97" y="-113.24" class="st0" width="570.92" height="570.92"/>
<g>
	<g>
		<path class="st1" d="M1.5,132.22c0-12.93,10.48-23.41,23.41-23.41h140.47c12.93,0,23.41,10.48,23.41,23.41v187.3
			c0,12.93-10.48,23.41-23.41,23.41H24.91c-12.93,0-23.41-10.48-23.41-23.41V132.22z M165.38,132.22H24.91v187.3h140.47V132.22z"/>
		<path class="st2" d="M106.85,289.33c0,6.47-5.24,11.71-11.71,11.71s-11.71-5.24-11.71-11.71s5.24-11.71,11.71-11.71
			S106.85,282.86,106.85,289.33z"/>
	</g>
	<path class="st2" d="M335.7,1.5H104.27c-21.91,0-39.73,17.82-39.73,39.73v48.71h24V41.23c0-8.67,7.06-15.73,15.73-15.73H335.7
		c8.67,0,15.73,7.06,15.73,15.73v154.73c0,8.67-7.05,15.73-15.73,15.73H204.71v24H335.7c21.91,0,39.73-17.82,39.73-39.73V41.23
		C375.43,19.32,357.61,1.5,335.7,1.5z"/>
	<path class="st2" d="M363.43,258.93H204.71v24h158.72c6.63,0,12-5.37,12-12S370.06,258.93,363.43,258.93z"/>
</g>
</svg>
