<?xml version="1.0" encoding="utf-8"?>
<!-- Generator: Adobe Illustrator 25.0.0, SVG Export Plug-In . SVG Version: 6.00 Build 0)  -->
<svg version="1.1" id="Layer_1" xmlns="http://www.w3.org/2000/svg" xmlns:xlink="http://www.w3.org/1999/xlink" x="0px" y="0px"
	 viewBox="0 0 579.92 579.92" style="enable-background:new 0 0 579.92 579.92;" xml:space="preserve">
<style type="text/css">
	.st0{display:none;opacity:0.37;fill:#312952;stroke:#312952;stroke-width:9;stroke-miterlimit:10;}
	.st1{fill-rule:evenodd;clip-rule:evenodd;fill:#312952;stroke:#312952;stroke-width:3;stroke-miterlimit:10;}
	.st2{fill:#312952;stroke:#312952;stroke-width:3;stroke-miterlimit:10;}
</style>
<rect x="4.5" y="4.5" class="st0" width="570.92" height="570.92"/>
<g>
	<g>
		<path class="st1" d="M103,249.97c0-12.93,10.48-23.41,23.41-23.41h140.47c12.93,0,23.41,10.48,23.41,23.41v187.3
			c0,12.93-10.48,23.41-23.41,23.41H126.41c-12.93,0-23.41-10.48-23.41-23.41V249.97z M266.88,249.97H126.41v187.3h140.47V249.97z"
			/>
		<path class="st2" d="M208.35,407.07c0,6.47-5.24,11.71-11.71,11.71c-6.47,0-11.71-5.24-11.71-11.71s5.24-11.71,11.71-11.71
			C203.11,395.37,208.35,400.61,208.35,407.07z"/>
	</g>
	<path class="st2" d="M437.2,119.24H205.77c-21.91,0-39.73,17.82-39.73,39.73v48.71h24v-48.71c0-8.67,7.06-15.73,15.73-15.73H437.2
		c8.67,0,15.73,7.06,15.73,15.73V313.7c0,8.67-7.05,15.73-15.73,15.73H306.21v24H437.2c21.91,0,39.73-17.82,39.73-39.73V158.97
		C476.93,137.07,459.1,119.24,437.2,119.24z"/>
	<path class="st2" d="M464.93,376.67H306.21v24h158.72c6.63,0,12-5.37,12-12S471.55,376.67,464.93,376.67z"/>
</g>
</svg>
