<svg id="design" xmlns="http://www.w3.org/2000/svg" width="1410.8" height="531.14" viewBox="0 0 1410.8 531.14"><defs><style>.cls-1{opacity:0.55;}.cls-2,.cls-3{fill:none;}.cls-2{stroke:#525aa5;stroke-miterlimit:10;}</style></defs><g class="cls-1"><path class="cls-2" d="M.46,529.31c469.93.33,939.85,1.73,1409.78,1.23" transform="translate(0.51)"/><path class="cls-2" d="M.46,526.69c236,1.49,472.18-3.46,708.07.82,107.22,2,214.18-2.41,321.38-1.92,126.73.57,253.61,4.52,380.33,2.24" transform="translate(0.51)"/><path class="cls-2" d="M.46,524.14c126.78,1.44,253.56,1,380.34.9,109.43-.11,218.92-4.56,328.32-.68,107.19,3.8,213.28-6.15,320.37-6,126.89.21,253.89,10.1,380.75,6.66" transform="translate(0.51)"/><path class="cls-2" d="M.46,521.65c126.86,2,253.72.72,380.58.51,109.6-.18,219.35-6.86,328.9-1.08,107.29,5.67,211.91-11.1,318.93-11.88,127.3-.92,254.13,16.8,381.37,13" transform="translate(0.51)"/><path class="cls-2" d="M.46,519.21c127,2.6,253.91.34,380.88,0C491.14,519,601.23,510,711,517.69a821.38,821.38,0,0,0,154.17-3.12c54.23-6.28,108.33-15.1,163-16.28,127.91-2.77,254.28,24.42,382.11,21" transform="translate(0.51)"/><path class="cls-2" d="M.46,516.79c127.06,3.14,254.11-.06,381.18-.52,110.05-.4,220.57-11.66,330.5-2.07,52,4.54,101.25,2.41,152.9-5.79,53.91-8.55,107.57-20.26,162.26-22.48,128.65-5.21,254.41,32.84,382.94,30.41" transform="translate(0.51)"/><path class="cls-2" d="M.46,514.4c127.16,3.67,254.28-.46,381.44-1.09,110.34-.55,221.4-14.19,331.55-2.69,52,5.43,100.36,1.57,151.58-9,53.52-11,106.68-25.78,161.44-29.23,129.34-8.17,254.58,41.86,383.77,40.88" transform="translate(0.51)"/><path class="cls-2" d="M.45,512c127.23,4.22,254.41-.79,381.64-1.63,110.65-.73,222.36-16.81,332.77-3.41C824,520.2,919,467.51,1025.68,458.05c129.85-11.52,254.91,51.36,384.56,52.18" transform="translate(0.51)"/><path class="cls-2" d="M.45,509.6c127.24,4.78,254.45-1,381.69-2.12,111-1,223.5-19.53,334.2-4.25,109.83,15.15,202.29-47.78,308.66-60.15,59.89-7,120.66,9.36,178.11,24.62,68.36,18.15,135.9,37.83,207.13,39.39" transform="translate(0.51)"/><path class="cls-2" d="M.44,507.17c127.19,5.38,254.39-1.1,381.59-2.51,111.41-1.23,224.8-22.36,335.83-5.22,110.46,17.06,200.8-56.29,306.62-71.63,60.19-8.72,121.31,11.19,178.17,28.93,68.23,21.29,135.51,44.42,207.59,47.17" transform="translate(0.51)"/><path class="cls-2" d="M.42,504.7c127.07,6,254.2-1,381.28-2.75,111.84-1.55,226.29-25.32,337.68-6.33,111,18.93,199.69-64.85,304.82-83.1,60.48-10.5,122,13.1,178.15,33.23,68,24.38,135,51,207.89,54.93" transform="translate(0.51)"/><path class="cls-2" d="M.4,502.18c126.83,6.76,253.85-.66,380.7-2.83,112.33-1.91,228-28.4,339.77-7.59,111.62,20.77,199-73.26,303.33-94.27,60.76-12.23,122.66,15.06,178,37.45,67.67,27.35,134.22,57.34,208,62.47" transform="translate(0.51)"/><path class="cls-2" d="M.37,499.6c126.47,7.55,253.32-.05,379.83-2.69,112.84-2.35,229.85-31.62,342.09-9S921,406.52,1024.55,383c61-13.85,123.29,17,177.85,41.48,67.23,30.16,133.29,63.44,207.84,69.6" transform="translate(0.51)"/><path class="cls-2" d="M.34,496.93c125.94,8.44,252.59.87,378.61-2.28,113.4-2.84,231.94-35,344.67-10.65,112.92,24.37,198.77-89,301.69-114.64,61.29-15.29,123.85,18.91,177.54,45.25,66.66,32.72,132.15,69.13,207.39,76.13" transform="translate(0.51)"/><path class="cls-2" d="M.3,494.17c125.23,9.43,251.64,2.14,377-1.59,114-3.4,234.24-38.5,347.52-12.47,113.82,26.16,199.1-95.84,301.71-123.29,61.52-16.46,124.29,20.68,177.1,48.68,66,35,130.81,74.28,206.61,81.86" transform="translate(0.51)"/><path class="cls-2" d="M.26,491.3c124.3,10.54,250.45,3.81,375-.56,114.64-4,236.76-42.17,350.65-14.49,115,28,199.62-101.77,302.43-130.57,61.73-17.29,124.54,22.26,176.51,51.67,65.14,36.88,129.25,78.8,205.44,86.6" transform="translate(0.51)"/><path class="cls-2" d="M.2,488.31c125.49,12,255.41,7.28,381.21.41,113.21-6.18,232.6-43.6,345.33-16.36C843.88,500.67,924.28,368.69,1028,336.91c61.37-18.81,122.73,20.3,173.88,50.73,65.69,39.07,130.25,85.14,208.39,92.87" transform="translate(0.51)"/><path class="cls-2" d="M.14,485.19c67.6,7.3,135.34,8.09,203.26,6.58,58.18-1.29,116.9-.84,175-4.42,113.89-7,235.56-47.71,349-18.79,56.17,14.32,97.69-7.71,143.91-39.57,50.67-34.91,99.69-81.13,159.67-99.58,61.4-18.88,122.66,21.2,173,52.51,64.56,40.13,128.19,88.15,206.27,95.12" transform="translate(0.51)"/><path class="cls-2" d="M.07,481.91c66.76,8.15,133.71,9.46,200.89,8.31,57.74-1,116.21,0,173.81-4,114.55-7.94,238.83-52.06,353-21.46,26.9,7.22,47.48,10.26,74.62.75C827.8,456.64,851,441.31,872.92,426,924,390.29,973.6,342.39,1034.61,324.14c61.36-18.36,122.32,21.74,172,53.66,63.28,40.65,125.9,90.16,203.62,95.75" transform="translate(0.51)"/><path class="cls-2" d="M0,478.47c65.75,9,131.75,11,198,10.34,57.2-.59,115.34,1.08,172.37-3.32,63.51-4.9,126.08-18.08,189.17-26.33,55-7.19,113.95-13.22,168.17,2,27.19,7.62,47.66,11.82,75.44,2.54,25.9-8.66,49.46-24.14,71.73-39.59,51.88-36,102.4-85,164.55-102.58,61.15-17.33,121.56,21.69,170.65,53.95,61.79,40.61,123.21,91,200.13,94.61" transform="translate(0.51)"/><path class="cls-2" d="M-.08,475c64.47,9.26,129.28,12.21,194.36,12.27,56.48,0,114.06,1.82,170.34-2.94,116.91-9.9,244.46-60,361.36-27.81,27.73,7.64,48.8,11.69,77.21,2.89,26.71-8.28,51.33-23.15,74.75-38.11,54.61-34.91,107.71-82.12,171.37-99.79,61.15-17,118.78,19.18,167.66,52.17,59.48,40.14,118.32,90.23,193.27,93.07" transform="translate(0.51)"/><path class="cls-2" d="M-.13,471.65c63.54,9.37,127.45,13.16,191.64,13.82,55.85.58,113,2.37,168.6-2.92,117.39-11.16,244.43-64.06,362.27-32.11,28.23,7.65,50.06,11.79,79.08,3.52,27.62-7.87,53.36-21.91,78-36.3,57.51-33.54,113.42-78.78,178.77-96.22,61.26-16.35,116.39,16.94,165.13,50.73,57.3,39.73,113.71,89.58,186.85,91.71" transform="translate(0.51)"/><path class="cls-2" d="M-.17,468.37c62.92,9.36,126.22,13.86,189.8,15,55.32,1,112.07,2.74,167.14-3.23C473.65,467.5,599.25,411.44,717.15,443c28.77,7.69,51.32,11.94,81,4.41,28.59-7.25,55.56-20.48,81.52-34.18,60.55-31.92,119.43-75,186.67-92,135.55-34.16,214.25,137.43,343.87,140.11" transform="translate(0.51)"/><path class="cls-2" d="M-.19,465.16c114.47,16.93,239.32,26.41,354.69,12.08s238.8-73.88,356-42.95c29.29,7.73,52.66,12.28,83,5.52,29.63-6.59,57.86-18.87,85.2-31.78,63.68-30.08,125.68-70.9,195-87.12,136.87-32,207,136.55,336.56,138.2" transform="translate(0.51)"/><path class="cls-2" d="M-.2,462c114,16.5,238.67,28.19,353.4,11.81,113.29-16.17,233.55-79.49,349.35-49.27,29.83,7.79,54,12.67,85.07,6.82,30.73-5.79,60.29-17.11,89-29.16,66.87-28,132.09-66.46,203.59-81.77,138-29.55,200.75,136,330,136.68" transform="translate(0.51)"/><path class="cls-2" d="M-.2,459c113.68,15.91,238.73,29.79,353,11.07,110.43-18.1,226.92-85.45,340.79-56,30.4,7.85,55.35,13.17,87.13,8.27s62.79-15.24,92.95-26.35c70.1-25.82,138.61-61.75,212.46-76,62-12,110.44,10.38,158.73,47.68,50.1,38.7,97.88,87.94,165.41,87.82" transform="translate(0.51)"/><path class="cls-2" d="M-.19,455.92c113.58,15.16,239.45,31.28,353.3,9.91,107-20.08,219.1-91.68,330.6-63.18,31,7.91,56.71,13.77,89.16,9.84,33-4,65.35-13.26,97-23.38,73.33-23.48,145.17-56.84,221.47-69.88,62.19-10.62,109.76,9.26,157.9,47.45,48.65,38.58,94.55,87.74,161,87.19" transform="translate(0.51)"/><path class="cls-2" d="M-.17,453c113.58,14.26,240.82,32.68,354.31,8.38,103.09-22.08,210.24-98.12,319.05-70.57,31.52,8,58.06,14.45,91.16,11.52,34.24-3,67.93-11.22,101-20.31,76.54-21.05,151.71-51.77,230.55-63.52,62.33-9.28,109.35,8.3,157.33,47.36,47.3,38.51,91.42,87.6,157,86.67" transform="translate(0.51)"/><path class="cls-2" d="M-.14,450c64.07,7.48,128.3,14.43,192.81,16.59,53.81,1.81,110.44,2.79,163.07-10,98.83-24,200.56-104.69,306.45-78.1,32.07,8,59.38,15.2,93.1,13.24,35.44-2.06,70.51-9.13,105-17.17,79.71-18.55,158.17-46.6,239.6-57,62.51-8,109.11,7.51,157,47.38,46.16,38.45,88.48,87.54,153.37,86.27" transform="translate(0.51)"/><path class="cls-2" d="M-.11,447.09c64.82,6.93,129.73,14.08,194.93,16.2,53.73,1.75,110.77,2.7,163-11.66C452.12,425.69,548.06,340.32,650.9,366c32.62,8.13,60.66,16,95,15,36.64-1.07,73.07-7,109-14,82.81-16,164.51-41.41,248.57-50.41,62.71-6.71,109,6.9,156.76,47.49,45.21,38.39,85.69,87.55,150,86" transform="translate(0.51)"/><path class="cls-2" d="M-.08,444.2c65.66,6.35,131.34,13.68,197.32,15.71,53.71,1.66,111.2,2.54,163-13.37C450,419,539.66,328.62,639.52,353.35c33.15,8.2,61.88,16.82,96.74,16.75,37.82-.08,75.57-4.94,112.88-10.81,85.81-13.53,170.65-36.22,257.34-43.83,31.89-2.8,65.83-4.17,96.18,7.7,22.75,8.89,42.26,24.07,60.53,39.95,44.22,38.45,83.2,87.6,147,85.76" transform="translate(0.51)"/><path class="cls-2" d="M0,441.32c66.56,5.75,133.07,13.23,199.89,15.16C253.47,458,311.69,459,363,441.36,448,412.18,531.43,317,628.24,340.82c33.64,8.29,63,17.66,98.38,18.47,39,.9,78-2.87,116.64-7.68,88.71-11.05,176.58-31.1,265.85-37.35,32-2.25,66.7-3.81,97.2,8.05,22.5,8.75,41.69,23.88,59.56,39.77,43.35,38.56,80.92,87.71,144.37,85.64" transform="translate(0.51)"/><path class="cls-2" d="M0,438.45C67.47,443.57,134.85,451.2,202.54,453c53.54,1.43,112.65,2.51,163.4-16.85,80.32-30.63,157.45-130.67,251.3-107.62,34.11,8.38,64.1,18.48,99.88,20.12,40.1,1.84,80.35-.87,120.26-4.64,91.45-8.64,182.2-26.11,274-31.06,32.2-1.74,67.53-3.49,98.18,8.36,22.3,8.62,41.2,23.71,58.71,39.62,42.59,38.7,78.83,87.87,142,85.59" transform="translate(0.51)"/><path class="cls-2" d="M0,435.57c68.41,4.49,136.67,12.27,205.24,14C258.7,450.85,318.84,452.06,369,431c75.78-31.87,146.7-136.67,237.78-114.32,34.51,8.48,65,19.27,101.21,21.68,41.15,2.73,82.56,1,123.66-1.73,94-6.33,187.48-21.29,281.68-25.06,32.35-1.29,68.27-3.21,99.07,8.61,22.14,8.5,40.79,23.55,58,39.51,41.91,38.87,76.93,88.05,139.89,85.59" transform="translate(0.51)"/><path class="cls-2" d="M0,432.69c69.33,3.86,138.44,11.8,207.89,13.38,53.32,1.21,114.58,2.56,164-20.18,43.78-20.13,77.64-55.48,115.16-84.7,31.67-24.66,68.19-46.08,109.79-35.84,34.85,8.58,65.89,20,102.35,23.09,42.15,3.58,84.62,2.84,126.83,1,96.42-4.15,192.38-16.72,288.86-19.41,32.49-.91,68.91-3,99.86,8.75,22,8.39,40.45,23.41,57.37,39.41,41.34,39.07,75.2,88.28,138.06,85.66" transform="translate(0.51)"/><path class="cls-2" d="M.06,429.79c70.19,3.24,140.13,11.37,210.41,12.85,53.2,1.12,115.61,2.58,164.38-21.7,42.31-21.06,73.57-57.65,108.69-88.19,29.39-25.57,63.71-48.09,104.41-38,35.13,8.71,66.58,20.64,103.28,24.35,43.06,4.35,86.51,4.5,129.73,3.57,98.59-2.11,196.83-12.41,295.41-14.21,32.61-.6,69.43-3,100.53,8.77,21.92,8.28,40.17,23.27,56.85,39.33,40.85,39.31,73.65,88.53,136.49,85.77" transform="translate(0.51)"/><path class="cls-2" d="M.07,426.86c71,2.65,141.68,11,212.72,12.42,53.09,1.06,116.6,2.57,164.74-23.09,41.06-21.89,70-59.62,102.86-91.35C507.74,298.48,540,275,580.05,285.05c35.33,8.88,67.12,21.18,104,25.42,43.87,5,88.19,6,132.31,5.88,100.52-.27,200.79-8.45,301.28-9.56,32.7-.37,69.8-3,101,8.64,21.85,8.17,39.95,23.14,56.43,39.25,40.45,39.58,72.25,88.82,135.16,85.93" transform="translate(0.51)"/><path class="cls-2" d="M.08,423.9c71.68,2.1,143,10.71,214.74,12.1,53,1,117.47,2.5,165.08-24.31,40.07-22.58,66.87-61.33,97.83-94.09,25.6-27.09,56.14-51.33,95.69-41.21,35.43,9.08,67.47,21.59,104.41,26.26,44.58,5.63,89.64,7.29,134.53,7.9,102.19,1.38,204.22-4.86,306.37-5.53,32.76-.22,70-3.27,101.34,8.32,21.81,8.07,39.81,23,56.1,39.2,40.14,39.87,71,89.12,134.07,86.11" transform="translate(0.51)"/><path class="cls-2" d="M.07,420.91c72.27,1.58,144.14,10.51,216.41,11.92,53,1,118.15,2.37,165.39-25.34,39.37-23.09,64.42-62.73,93.75-96.37,24.21-27.77,53.3-52.5,92.6-42.18,35.45,9.3,67.63,21.83,104.59,26.83,45.16,6.12,90.83,8.38,136.36,9.61,103.55,2.78,207-1.69,310.58-2.22,32.78-.17,70-3.69,101.44,7.79,21.8,8,39.71,22.91,55.86,39.16,39.9,40.17,69.93,89.43,133.19,86.31" transform="translate(0.51)"/><path class="cls-2" d="M.05,417.86c72.7,1.14,145,10.43,217.64,11.94,53.09,1.09,118.55,2.15,165.64-26.13,39-23.42,62.68-63.82,90.76-98.15,23.27-28.45,51.29-53.31,90.59-42.67C600,272.42,632.25,284.76,669.12,290c45.62,6.46,91.76,9.21,137.77,10.94,104.59,3.93,209.22,1,313.84.3,32.76-.22,69.86-4.33,101.29,7,21.82,7.88,39.68,22.78,55.71,39.12,39.74,40.49,69,89.74,132.51,86.52" transform="translate(0.51)"/><path class="cls-2" d="M0,414.75c73,.77,145.43,10.51,218.36,12.17,53.27,1.21,118.63,1.83,165.82-26.66,39-23.51,61.73-64.5,89-99.35C496,271.75,523.44,247.2,563,258.29c35.15,9.86,67.3,21.77,104,27.1,45.93,6.67,92.38,9.77,138.71,11.88,105.29,4.79,210.72,3.2,316.06,1.92,32.71-.39,69.43-5.21,100.88,6,21.85,7.79,39.68,22.66,55.63,39.08,39.64,40.83,68.16,90.06,132,86.73" transform="translate(0.51)"/><path class="cls-2" d="M0,411.63c69,.28,137.55,9.18,206.47,11.66,54.59,2,121.9,4.21,171.08-23.61C417.7,376.94,442,336.24,470,301.11c23.72-29.8,52.63-57.23,93.54-45.61,32.55,9.24,62.67,20.29,96.54,25.54,49.26,7.63,99.18,10.89,148.93,13.13,105.57,4.76,211.27,3.18,316.89,1.77,30.84-.41,65.24-4.95,95.14,4.58,24,7.65,43.28,23.8,60.37,41.74,38.19,40.09,67.12,87.69,128.83,85.55" transform="translate(0.51)"/><path class="cls-2" d="M-.08,408.6c68.67-.39,136.85,8.52,205.4,11,54.54,1.93,122.65,4.6,171.09-24.79,39.4-23.91,64.66-63.45,94-97.73,24.66-28.83,54.58-55,95-44.1,32.66,8.77,62.93,19.93,96.79,25.1,49.13,7.49,98.89,10.65,148.49,12.78,105.07,4.51,210.26,2.67,315.38,1.09,30.75-.46,65.35-5.18,95.28,3.77,24.13,7.23,43.63,23.17,60.84,41,38.09,39.48,66.93,88.42,128,87.78" transform="translate(0.51)"/><path class="cls-2" d="M-.11,405.64c68.21-1.21,136,7.59,204.07,9.85,54.67,1.81,123.11,4.53,171-26.21,38.82-24.91,65.32-63.27,96.29-96.5,25.92-27.82,57.12-52.43,97.31-42.2,32.71,8.32,63.11,19.49,96.92,24.52,48.91,7.29,98.43,10.29,147.81,12.24,104.42,4.13,208.94,1.92,313.38,0,30.65-.56,65.34-5.52,95.26,2.91,24.28,6.85,44,22.64,61.25,40.41,37.92,39,66.62,89.33,127,90.33" transform="translate(0.51)"/><path class="cls-2" d="M-.14,402.77c67.64-2.22,135,6.4,202.5,8.35,55,1.59,123.29,4,170.87-27.86,38.44-25.76,66.46-62.95,99.28-94.91,27.46-26.74,60.16-49.63,100.29-39.93,32.71,7.9,63.2,19,96.93,23.82,48.63,7,97.85,9.79,146.92,11.51,103.62,3.63,207.31.93,310.93-1.51,30.52-.71,65.21-6,95.09,2,24.41,6.51,44.24,22.2,61.59,40,37.73,38.58,66.22,90.38,125.85,93.18" transform="translate(0.51)"/><path class="cls-2" d="M-.17,400c67-3.41,133.78,4.94,200.7,6.49,55.43,1.28,123.2,3.12,170.67-29.72C431,335.36,493,226.87,578.05,246.44c32.68,7.52,63.23,18.38,96.85,23,48.29,6.67,97.13,9.16,145.82,10.59,102.69,3,205.42-.26,308.07-3.36,30.36-.91,65-6.52,94.77,1,24.54,6.22,44.5,21.86,61.89,39.62,35.46,36.22,67.1,95.63,124.59,96.33" transform="translate(0.51)"/><path class="cls-2" d="M-.18,397.29c66.2-4.76,132.47,3.27,198.68,4.31,56,.89,122.86,1.86,170.4-31.78,61.48-43.5,128.66-144.26,215.34-125.18,32.61,7.18,63.18,17.73,96.67,22.12,47.89,6.27,96.29,8.43,144.54,9.51,101.64,2.29,203.28-1.64,304.83-5.54,30.17-1.16,64.64-7.16,94.33,0,24.66,6,44.72,21.6,62.13,39.41,35.25,36.06,66.45,97,123.21,99.72" transform="translate(0.51)"/><path class="cls-2" d="M-.2,394.68c69.16-6.67,138.75,2.18,208,1.86,57.65-.27,117.06-3.38,164.68-38.55,62-45.77,132.06-133.23,218.76-115,35,7.34,67.81,18,103.77,22.05,44.18,5,88.72,6.73,133.15,7.42,100,1.56,200-3,299.9-7.83,31.6-1.53,68.41-8.61,99.51-.75,22.69,5.73,41.47,19.88,57.83,36.05,36.65,36.22,66.92,101,124.41,106.16" transform="translate(0.51)"/><path class="cls-2" d="M-.21,392.15c118.33-17,266.43,34.18,370.11-41.91,64.71-47.5,140.67-126.79,229.2-108.75,34.85,7.09,67.6,17.16,103.36,20.89,43.71,4.54,87.74,5.87,131.65,6.16,98.76.66,197.46-4.71,296-10.57,31.34-1.87,67.88-9.45,98.8-1.89,22.79,5.57,41.63,19.77,58,36,36.58,36.36,66.13,102.46,122.85,110" transform="translate(0.51)"/><path class="cls-2" d="M-.22,389.71c119.94-21.29,261.54,29.22,367.33-47.5C435,293,517,222.19,607.62,240.19c34.66,6.88,67.32,16.31,102.87,19.64,43.19,4.06,86.67,4.95,130,4.81,97.42-.32,194.72-6.57,291.85-13.56,31-2.24,67.26-10.35,98-3.06,22.88,5.43,41.77,19.73,58.08,36.07,36.6,36.66,65.26,103.89,121.21,114.09" transform="translate(0.51)"/><path class="cls-2" d="M-.22,387.36c65-14.07,134.46-4.92,200.45-7.42,28.84-1.09,57.83-3.41,86.08-9.53,30.57-6.63,52.7-18.53,77.86-36.47C435.56,283,523.87,221,616.74,239c34.44,6.69,67,15.41,102.31,18.33,42.64,3.53,85.53,3.95,128.29,3.34,96-1.35,191.82-8.55,287.44-16.75,30.72-2.64,66.57-11.31,97.08-4.25,23,5.31,41.89,19.73,58.15,36.18,36.72,37.14,64.32,105.3,119.49,118.33" transform="translate(0.51)"/><path class="cls-2" d="M-.22,385.09c63.33-16.49,132.89-7.62,197.66-10.92,28.77-1.47,57.67-4.16,85.77-10.76,30.6-7.19,52.51-20.18,77.9-37.93C436.35,272.91,531,219.89,626.38,238c34.21,6.51,66.66,14.47,101.69,17,42.07,3,84.34,2.9,126.47,1.8,94.5-2.45,188.8-10.64,282.82-20.13,30.39-3.07,65.8-12.33,96.1-5.47,23.06,5.22,42,19.78,58.21,36.35,36.94,37.8,63.31,106.65,117.69,122.71" transform="translate(0.51)"/><path class="cls-2" d="M-.22,382.91C60.67,364,130,372.39,192.86,368.43c28.52-1.8,57.21-4.78,85-11.63,30.43-7.49,52.33-20.79,77.74-38.31,79.95-55.11,181.82-99.55,280.83-81.28,31,5.71,60.52,12.72,92.16,14.93,46.76,3.25,93.8,2.43,140.6.46,91.84-3.88,183.43-13.07,274.69-23.83,29.51-3.48,63.52-13,93-5.84,22.82,5.56,41.55,20.48,57.43,37.17,36.66,38.55,61.81,107.09,114.9,126.2" transform="translate(0.51)"/><path class="cls-2" d="M-.22,380.82c58.75-21.54,128.67-13.48,190.12-18.24,28.43-2.21,57-5.6,84.65-12.95,30.38-8.09,52.12-22.54,77.76-39.82C436.54,253,545,218,646.87,236.46c164.89,29.94,334.87,7.1,499.79-15.27,29.19-4,62.66-14.09,92-7.05,22.9,5.51,41.64,20.62,57.44,37.46,37.12,39.55,60.79,108.27,113,130.78" transform="translate(0.51)"/><path class="cls-2" d="M-.21,378.81c55.85-24,126.06-16.55,185.43-21.94,31.87-2.89,64.1-7.15,94.63-17.1,25.52-8.33,44.64-22.34,66.66-37.08,88.83-59.46,205.42-86,311.07-66.88,163,29.44,333.33,2.4,495.51-22.81,25.62-4,53.57-12.7,79.67-9.15,26.73,3.63,48.38,20.94,66,40.25,37.07,40.59,59.31,108.53,110.15,134.4" transform="translate(0.51)"/><path class="cls-2" d="M-.2,376.89C53,350.16,124.45,357.2,182.18,351.07c31.75-3.38,63.87-8.12,94.13-18.69,25.42-8.87,44.5-23.86,66.71-38.41,93.38-61.21,216.65-78,325.44-58.66,159.86,28.39,329.27-2.21,487.45-30,25.29-4.44,52.75-13.7,78.67-10.29,26.81,3.53,48.47,21.11,66,40.58,37.7,41.89,58.44,109.5,108.21,139.09" transform="translate(0.51)"/><path class="cls-2" d="M-.19,375.06C49.63,345.91,122,352.19,177.5,345.52c31.46-3.79,63.36-8.84,93.25-19.74,25.22-9.2,44.16-24.35,66.25-38.86,98.27-64.51,229.47-71.73,342.41-52,72.4,12.65,143.83,9.86,216.83,2.61,86.89-8.63,173.36-22.43,259-39.18,26.37-5.16,55.85-16.11,82.94-11.85,26.66,4.2,47.84,22,65.06,41.71C1341,271.35,1360.5,337.83,1408.61,371" transform="translate(0.51)"/><path class="cls-2" d="M-.18,373.31c21.55-14.63,49.84-18.37,75-21.87,32.59-4.52,65.42-7,98-11.34,31.2-4.19,62.82-9.6,92.38-20.78,28.77-10.88,50-30.24,75.95-45.79,102.34-61.22,235.56-58.45,349.25-38.92,73.39,12.61,146.62,7.35,220.29-1.44,82-9.8,163.55-24.18,244.24-41.6,27.48-5.94,58.44-18.5,86.85-13.47,26.45,4.68,47.31,23,64.17,42.84,37.82,44.43,56.2,109.73,102.47,146.38" transform="translate(0.51)"/><path class="cls-2" d="M-.17,371.66c19.9-15.67,47.73-20,72-24,32-5.19,64.37-8.08,96.46-12.84,30.94-4.6,62.29-10.35,91.53-21.8,28.58-11.18,49.46-30.84,75.36-46.38,107-64.25,248.3-52.42,366.16-32.26,68.82,11.77,138.13,5.55,207-3.46,85-11.11,169.55-27.46,252.92-47.47,26.78-6.43,56.19-19.12,84.1-13.62,26.26,5.17,46.79,24,63.32,44,37.86,45.72,55.39,109.89,99.62,150" transform="translate(0.51)"/><path class="cls-2" d="M-.15,370.09C18.24,353.3,45.93,348.33,69.54,344c31.74-5.88,63.91-9.2,95.76-14.43,30.84-5.06,62.1-11.27,91.09-23.29,28.46-11.79,49.25-32.44,75.42-47.84,111.53-65.62,259.07-44.62,380.29-24.12,67.76,11.46,136.78,3.37,204.28-6.64,83.38-12.36,166.23-29.88,247.74-51.33,26.47-7,55.19-20.21,83-14.83,26.29,5.09,47,24.2,63.31,44.34,38.27,47.24,55.4,110.89,97.69,154.59" transform="translate(0.51)"/><path class="cls-2" d="M-.14,368.61c16.7-17.68,44-23.34,66.75-28.11,31.18-6.52,62.89-10.25,94.25-15.82,30.6-5.44,61.6-12,90.31-24.22,28.27-12,48.61-32.94,74.59-48.47C442,182.48,597.05,213.9,722.67,234.24c68.81,11.14,139.37.81,207.51-10.76a2187.34,2187.34,0,0,0,239.82-55c25.93-7.48,53-20.68,80.58-14.8,26.11,5.58,46.51,25.17,62.51,45.44,38.21,48.41,55.05,111.23,94.91,158" transform="translate(0.51)"/><path class="cls-2" d="M-.12,367.21c25.77-30.11,78.57-33.46,114.82-39.74,47.55-8.23,97.45-15.28,141.15-37,20-9.94,35.07-24.79,53.13-37.51,23-16.2,49.31-27,76.39-34.17,54.64-14.4,112.44-14.37,168.42-10,52.92,4.15,105.29,12.95,157.59,21.81,51.12,8.66,99.09,8.43,150.62,1.85,120-15.32,234.64-49.66,350.18-83.74,110.54-32.6,147.39,142.23,195.68,205.32" transform="translate(0.51)"/><path class="cls-2" d="M-.1,365.91c23.84-32.37,79.67-36.41,115.76-43.16,46.67-8.74,95.56-16.62,138.05-38.95,19.58-10.29,34.28-25.51,52.15-38.13,23.07-16.29,49.58-27,76.93-33.76,58-14.27,119.46-12.14,178.45-6,53.67,5.6,106.7,15.59,159.83,24.78,50,8.66,96.93,7.48,147.22.32,118.75-16.92,231.3-53.51,345.18-89.24,110.59-34.7,150.2,144.06,194.25,209.39" transform="translate(0.51)"/><path class="cls-2" d="M-.09,364.69c21.27-33.65,77-38.52,112.11-45.6,46.32-9.33,94.83-17.6,137-40.1,21.3-11.38,36.69-28.8,56.39-42.23,23.64-16.11,50.91-26.11,78.72-32.17,59.87-13.05,122.61-9,182.93-1.42,54.78,6.91,108.83,18.09,163.17,27.65,49.41,8.7,95.69,6.59,145.2-1.25,115.78-18.32,227.28-54.08,337.27-93.49,111.67-40,155.1,145.37,194.93,212.38" transform="translate(0.51)"/><path class="cls-2" d="M-.07,363.57c18.67-34.63,74.3-40.48,108.58-47.84,47.52-10.22,97.93-19,140.55-43.57,19.09-11,33-27.37,50.72-40.06,25.3-18.08,55.34-28.71,85.69-34.51,61.49-11.75,125.73-5.92,187.17,3.07,55.71,8.15,110.65,20.45,166.05,30.32,48.9,8.71,94.59,5.74,143.45-2.73,115.51-20,224.57-59.1,334.15-99.16S1372.66,279.51,1407.47,346" transform="translate(0.51)"/><path class="cls-2" d="M-.06,362.53c16.16-35.37,71.87-42.3,105.21-49.87,47.2-10.72,97.27-19.73,139.65-44.4,20.72-12.07,35.56-30.44,55.06-44,23.94-16.61,51.85-26.49,80.34-31.92,62.56-11.93,128.06-5,190.41,4.91,59.08,9.37,117.23,23.43,176.07,34,48.35,8.67,93.52,4.95,141.64-4.09,115.31-21.65,222.09-64.25,331.46-104.53,108-39.78,157,154.7,187.58,221.08" transform="translate(0.51)"/><path class="cls-2" d="M0,361.58c13.79-36,69.51-43.93,102-51.66,48.46-11.53,100.26-21,143.2-47.72,18.69-11.62,32-28.56,49.58-41.49,25.57-18.82,56-29.09,87.08-34.33,64-10.79,130.38-2.24,193.77,8.87,59.76,10.48,118.6,25.54,178.31,36.27,50,9,96.74,3.74,146.28-6.58,110.75-23.09,214.12-64.55,318.55-106.49C1329,74.19,1379.34,272.78,1407.26,341.68" transform="translate(0.51)"/><path class="cls-2" d="M0,360.72c11.61-36.64,67.13-45.31,99-53.2,48.27-12,99.71-21.54,142.56-48.14,20.43-12.69,34.34-31.77,53.71-45.66,24-17.22,52.48-26.63,81.33-31.73,67.1-11.84,137.59-1.1,203.74,11.53C640.58,205,700,221.12,760.45,231.92c49.49,8.85,95.74,2.94,144.61-7.82,110.77-24.41,212.18-68.9,316.66-111C1331,69,1382.83,271.37,1407.17,339.92" transform="translate(0.51)"/><path class="cls-2" d="M0,360c9.85-38.33,68.77-47.58,100.49-55.59,47.49-12,98.52-21.9,140.35-48.8,20.05-12.89,33.55-32.2,52.65-46.08,25.79-18.73,56.34-28.56,87.68-33,68.17-9.59,138.31,2.21,205.1,16,60.18,12.4,119.5,29.19,180,39.89,48.48,8.56,94.24,2.27,141.94-8.67,109.82-25.19,211.21-69.87,314.1-114.17,109.81-47.28,163.32,159.69,184.78,228.9" transform="translate(0.51)"/><path class="cls-2" d="M0,359.28c7.91-38.89,66.45-48.5,97.8-56.59C145.15,290.47,196,280.63,237.86,254c20-12.72,33.16-31.56,51.44-46.08,25-19.82,55.47-30,86.66-34.79,68.41-10.42,139.52,2.37,206.42,16.68,63,13.47,125.06,31.93,188.56,43,47.94,8.36,93.59,1.69,140.62-9.5,108-25.67,208.86-69.91,309.34-115.77C1333.27,56.25,1387.57,265,1407,337.25" transform="translate(0.51)"/><path class="cls-2" d="M0,358.69c6.09-39.27,64.28-49.18,95.32-57.27,48.83-12.74,101.41-22.65,144.1-51.07,19.91-13.25,32.59-32.91,51.22-47.49,24.94-19.52,56.12-29.44,87.15-33.67,69.1-9.41,140.73,4.7,208,19.86,63,14.2,125.23,33.48,189,44.31,49.33,8.38,97,.4,145.1-11.71,106.24-26.73,204.25-72.19,303.43-117.28,112.1-51,167,159.89,183.72,232" transform="translate(0.51)"/><path class="cls-2" d="M0,358.19c4.54-40.95,66.84-50.87,98.37-59,47.12-12.16,97.49-22,138.89-49,19.95-13,32.25-32.09,50-47.32,23.92-20.54,54.63-31.27,85.44-35.9,71.64-10.77,146.42,5.23,216,21.65,62.82,14.84,124.91,34.7,188.67,45.24,48.81,8.06,96.54-.12,144-12.29,106.76-27.33,204.22-74.47,304-119.53C1337.33,51.5,1392.61,263.7,1407,335.83" transform="translate(0.51)"/><path class="cls-2" d="M0,357.78c2.92-41,65.53-51.13,96.31-59,47.13-12,97.52-21.59,139.23-48,22.1-14,34.36-34.63,53.91-51.18,24.19-20.48,54.21-30.77,85.3-35.09,71.93-10,146.66,7,216.22,24.1,62.39,15.34,124.31,36,187.9,45.87,48.27,7.51,96.06-.71,142.94-12.72,105.18-26.95,204.06-72.32,301.54-119.14,114.58-55,170.9,157.63,183.6,233" transform="translate(0.51)"/></g><rect class="cls-3" x="0.51" width="1406.95" height="530.67"/></svg>