<?xml version="1.0" encoding="iso-8859-1"?>
<!-- Generator: Adobe Illustrator 18.0.0, SVG Export Plug-In . SVG Version: 6.00 Build 0)  -->
<!DOCTYPE svg PUBLIC "-//W3C//DTD SVG 1.1//EN" "http://www.w3.org/Graphics/SVG/1.1/DTD/svg11.dtd">
<svg version="1.1" id="Capa_1" xmlns="http://www.w3.org/2000/svg" xmlns:xlink="http://www.w3.org/1999/xlink" x="0px" y="0px"
	 viewBox="0 0 280 280" style="enable-background:new 0 0 280 280;" xml:space="preserve">
<g>
	<path d="M140,74.584c-17.391,0-31.539,14.148-31.539,31.539c0,13.896,9.037,25.712,21.539,29.905v132.69c0,5.523,4.477,10,10,10
		s10-4.477,10-10v-132.69c12.502-4.192,21.539-16.009,21.539-29.905C171.539,88.732,157.391,74.584,140,74.584z"/>
	<path d="M194.458,36.066c-4.705-2.888-10.863-1.416-13.754,3.29c-2.89,4.707-1.416,10.865,3.291,13.754
		c18.594,11.415,29.694,31.232,29.694,53.013c0.002,21.778-11.1,41.595-29.694,53.011c-4.707,2.89-6.181,9.047-3.291,13.754
		c1.888,3.075,5.17,4.77,8.532,4.77c1.783,0,3.59-0.477,5.222-1.479c24.567-15.082,39.233-41.271,39.232-70.057
		C233.689,77.336,219.023,51.147,194.458,36.066z"/>
	<path d="M228.532,3.283c-4.418-3.314-10.686-2.416-14,2.001c-3.313,4.418-2.417,10.686,2.002,14
		C244.157,39.996,260,71.648,260,106.123c0,34.474-15.843,66.126-43.466,86.839c-4.419,3.313-5.314,9.581-2.002,13.999
		c1.965,2.62,4.968,4.001,8.009,4.001c2.087,0,4.192-0.651,5.991-2C261.241,184.437,280,146.953,280,106.123
		C280,65.292,261.24,27.808,228.532,3.283z"/>
	<path d="M96.005,53.111c4.707-2.89,6.181-9.047,3.291-13.754c-2.889-4.705-9.044-6.18-13.754-3.29
		c-24.565,15.081-39.231,41.27-39.231,70.056c-0.002,28.786,14.664,54.976,39.231,70.058c1.632,1.001,3.438,1.479,5.222,1.479
		c3.361,0,6.645-1.695,8.532-4.77c2.89-4.707,1.416-10.865-3.291-13.754c-18.595-11.416-29.696-31.233-29.694-53.012
		C66.311,84.343,77.411,64.526,96.005,53.111z"/>
	<path d="M63.468,192.962C35.845,172.251,20.002,140.599,20,106.124c0.002-34.477,15.845-66.129,43.466-86.84
		c4.419-3.313,5.314-9.581,2.002-14c-3.314-4.419-9.581-5.316-14-2.001C18.762,27.806,0.002,65.29,0,106.124
		c0.002,40.832,18.762,78.316,51.47,102.84c1.799,1.349,3.903,1.999,5.991,1.999c3.041,0,6.044-1.382,8.009-4.001
		C68.782,202.543,67.887,196.275,63.468,192.962z"/>
</g>
<g>
</g>
<g>
</g>
<g>
</g>
<g>
</g>
<g>
</g>
<g>
</g>
<g>
</g>
<g>
</g>
<g>
</g>
<g>
</g>
<g>
</g>
<g>
</g>
<g>
</g>
<g>
</g>
<g>
</g>
</svg>
